<?xml version="1.0" standalone="no"?><!DOCTYPE svg PUBLIC "-//W3C//DTD SVG 1.1//EN" "http://www.w3.org/Graphics/SVG/1.1/DTD/svg11.dtd"><svg t="1549545746366" class="icon" style="" viewBox="0 0 1024 1024" version="1.1" xmlns="http://www.w3.org/2000/svg" p-id="19849" xmlns:xlink="http://www.w3.org/1999/xlink" width="72" height="72"><defs><style type="text/css"></style></defs><path d="M518.5024 917.248L491.52 904.8064a937.472 937.472 0 0 1-193.2288-123.2384 650.24 650.24 0 0 1-136.8064-150.3232 398.336 398.336 0 0 1-66.56-216.0128 306.0736 306.0736 0 0 1 41.4208-158.0032 250.88 250.88 0 0 1 111.616-100.7104 257.5872 257.5872 0 0 1 157.3888-16.128 322.2528 322.2528 0 0 1 113.152 47.6672 322.56 322.56 0 0 1 112.64-47.6672 258.9184 258.9184 0 0 1 158.0544 16.128A251.2384 251.2384 0 0 1 901.12 256.768 306.3808 306.3808 0 0 1 942.592 414.72a400.7424 400.7424 0 0 1-66.1504 216.2176 652.1344 652.1344 0 0 1-136.7552 150.3232 936.6528 936.6528 0 0 1-193.2288 123.2384z m-166.4-707.072a174.6432 174.6432 0 0 0-150.272 85.9136 230.4 230.4 0 0 0-32.2048 119.1424 326.8608 326.8608 0 0 0 53.6576 175.6672 575.2832 575.2832 0 0 0 121.088 132.6592 907.1104 907.1104 0 0 0 173.312 111.2576A879.7184 879.7184 0 0 0 691.2 723.5584a579.6864 579.6864 0 0 0 121.088-132.6592 324.9664 324.9664 0 0 0 55.1424-175.6672 231.0144 231.0144 0 0 0-30.72-119.3472 174.6432 174.6432 0 0 0-78.3872-70.2464 183.552 183.552 0 0 0-112.0768-11.5712 259.4816 259.4816 0 0 0-104.8064 49.8176L518.5024 281.6l-22.9376-17.6128a259.072 259.072 0 0 0-105.0112-50.0224 197.6832 197.6832 0 0 0-38.4512-3.7888z" p-id="19850"></path></svg>