<?xml version="1.0" standalone="no"?><!DOCTYPE svg PUBLIC "-//W3C//DTD SVG 1.1//EN" "http://www.w3.org/Graphics/SVG/1.1/DTD/svg11.dtd"><svg t="1549545722982" class="icon" style="" viewBox="0 0 1024 1024" version="1.1" xmlns="http://www.w3.org/2000/svg" p-id="19384" xmlns:xlink="http://www.w3.org/1999/xlink" width="72" height="72"><defs><style type="text/css"></style></defs><path d="M819.198 742.475H563.201v102.427h179.195c14.136 0 25.599 11.47 25.599 25.612 0 14.144-11.463 25.605-25.6 25.605H281.593c-14.133 0-25.6-11.46-25.6-25.605 0-14.142 11.467-25.612 25.6-25.612h179.203V742.475H204.8c-56.556 0-102.4-45.863-102.4-102.433V230.309c0-56.567 45.844-102.429 102.4-102.429h614.398c56.556 0 102.402 45.862 102.402 102.429v409.733c0 56.57-45.846 102.433-102.402 102.433z m0-460.95c0-28.28-22.922-51.216-51.203-51.216H255.999c-28.278 0-51.199 22.935-51.199 51.216v307.299c0 28.286 22.92 51.218 51.199 51.218h511.997c28.28 0 51.203-22.932 51.203-51.218V281.525h-0.001zM654.949 450.971c0.084 0.209 0.118 0.446 0.205 0.66l-215 134.28c-0.08-0.098-0.186-0.17-0.27-0.269-2.972 1.532-6.226 2.638-9.869 2.638-10.912 0-19.607-7.909-20.433-17.855-0.035 0-0.062-0.015-0.093-0.015v-0.425c-0.014-0.339-0.214-0.629-0.214-0.982 0-0.338 0.2-0.628 0.214-0.975V301.32c-0.014-0.348-0.214-0.637-0.214-0.98 0-0.349 0.2-0.638 0.214-0.986v-0.116c0.012 0 0.018-0.009 0.026-0.009 0.654-10.096 9.471-18.166 20.5-18.166 3.782 0 7.139 1.195 10.184 2.841 0.079-0.093 0.189-0.16 0.267-0.25L655.14 417.768c-0.084 0.197-0.11 0.412-0.192 0.609 6.06 3.364 10.331 9.254 10.331 16.296 0.002 7.035-4.27 12.934-10.33 16.298z" p-id="19385"></path></svg>