<?xml version="1.0" standalone="no"?><!DOCTYPE svg PUBLIC "-//W3C//DTD SVG 1.1//EN" "http://www.w3.org/Graphics/SVG/1.1/DTD/svg11.dtd"><svg t="1549545734917" class="icon" style="" viewBox="0 0 1024 1024" version="1.1" xmlns="http://www.w3.org/2000/svg" p-id="19616" xmlns:xlink="http://www.w3.org/1999/xlink" width="72" height="72"><defs><style type="text/css"></style></defs><path d="M512 684.218182C328.145455 684.218182 176.872727 535.272727 176.872727 349.090909 176.872727 165.236364 325.818182 13.963636 512 13.963636 695.854545 13.963636 847.127273 162.909091 847.127273 349.090909c0 183.854545-151.272727 335.127273-335.127273 335.127273z m200.145455-537.6c-53.527273-53.527273-128-69.818182-200.145455-69.818182-148.945455 0-281.6 111.709091-281.6 267.636364s125.672727 281.6 281.6 281.6c155.927273 0 281.6-125.672727 281.6-281.6 0-72.145455-30.254545-144.290909-81.454545-197.818182z m235.054545 863.418182H942.545455c-16.290909 0-20.945455-13.963636-23.272728-30.254546-9.309091-111.709091-65.163636-211.781818-151.272727-281.6-9.309091-6.981818-11.636364-20.945455-9.309091-32.581818 2.327273-11.636364 2.327273-20.945455 13.963636-23.272727 11.636364-4.654545 23.272727 0 32.581819 6.981818 100.072727 79.127273 162.909091 195.490909 174.545454 323.490909-2.327273 20.945455-13.963636 37.236364-32.581818 37.236364zM351.418182 635.345455C207.127273 693.527273 109.381818 826.181818 97.745455 982.109091c-2.327273 16.290909-2.327273 30.254545-18.618182 30.254545h-2.327273C58.181818 1010.036364 46.545455 996.072727 46.545455 977.454545c13.963636-176.872727 125.672727-332.8 290.90909-400.290909 16.290909-4.654545 32.581818 2.327273 39.563637 18.618182 9.309091 13.963636-9.309091 30.254545-25.6 39.563637z" fill="#4A4A4A" p-id="19617"></path></svg>