<?xml version="1.0" standalone="no"?><!DOCTYPE svg PUBLIC "-//W3C//DTD SVG 1.1//EN" "http://www.w3.org/Graphics/SVG/1.1/DTD/svg11.dtd"><svg t="1549545740209" class="icon" style="" viewBox="0 0 1097 1024" version="1.1" xmlns="http://www.w3.org/2000/svg" p-id="19732" xmlns:xlink="http://www.w3.org/1999/xlink" width="77.1328125" height="72"><defs><style type="text/css"></style></defs><path d="M658.141623 109.641143c108.470857 0 195.291429 87.04 195.291428 195.803428a194.706286 194.706286 0 0 1-195.291428 195.730286 194.706286 194.706286 0 0 1-195.291429-195.730286 194.706286 194.706286 0 0 1 195.291429-195.803428z m267.556571 195.803428c0-145.042286-115.712-268.361143-267.556571-268.361142-144.676571 0-267.629714 123.318857-267.629714 268.361142a269.165714 269.165714 0 0 0 117.979428 222.866286 429.641143 429.641143 0 0 0-277.065143 400.749714c0 21.723429 14.482286 36.278857 36.132572 36.278858 21.723429 0 36.205714-14.555429 36.205714-36.278858 0-195.803429 159.085714-355.328 354.377143-355.328s354.377143 159.524571 354.377143 355.328c0 21.723429 14.482286 36.278857 36.132571 36.278858 21.723429 0 36.205714-14.555429 36.205714-36.278858 0-185.270857-117.028571-340.114286-277.357714-400.603428a269.165714 269.165714 0 0 0 118.198857-223.085714z" p-id="19733"></path><path d="M274.799909 508.489143c-72.265143 0-122.88-58.075429-122.88-123.318857 0-65.243429 50.614857-123.245714 115.638857-123.245715 21.723429 0 36.205714-21.796571 36.205714-43.52 0-21.796571-14.482286-36.278857-36.205714-36.278857a194.706286 194.706286 0 0 0-195.291429 195.803429c0 64.731429 30.793143 121.782857 78.555429 157.330286A266.678857 266.678857 0 0 0 0.002194 776.777143c0 21.723429 14.482286 36.278857 36.132572 36.278857 21.723429 0 36.205714-21.796571 36.205714-43.52a194.706286 194.706286 0 0 1 195.291429-195.803429c21.650286 0 43.373714-7.314286 43.373714-29.037714 0-21.723429-14.482286-36.205714-36.205714-36.205714z" p-id="19734"></path></svg>