<?xml version="1.0" standalone="no"?><!DOCTYPE svg PUBLIC "-//W3C//DTD SVG 1.1//EN" "http://www.w3.org/Graphics/SVG/1.1/DTD/svg11.dtd"><svg t="1549545772129" class="icon" style="" viewBox="0 0 1024 1024" version="1.1" xmlns="http://www.w3.org/2000/svg" p-id="20552" xmlns:xlink="http://www.w3.org/1999/xlink" width="72" height="72"><defs><style type="text/css"></style></defs><path d="M884.178511 597.249593c-27.616988 0-46.059012-18.442024-46.059012-46.059012L838.119499 412.965449c0-23.006993 18.442024-46.060035 46.059012-46.060035 23.053042 0 46.059012 18.443048 46.059012 46.060035l0 142.789077C930.237523 578.807568 911.842571 597.249593 884.178511 597.249593L884.178511 597.249593zM699.940416 712.375633c-27.616988 0-46.059012-18.442024-46.059012-46.060035L653.881404 297.839409c0-23.053042 18.442024-46.059012 46.059012-46.059012 23.006993 0 46.060035 18.395976 46.060035 46.059012l0 368.476189C746.000452 693.933609 727.557404 712.375633 699.940416 712.375633L699.940416 712.375633zM512.768503 804.494681c-27.616988 0-46.060035-18.395976-46.060035-46.060035L466.708468 205.721385c0-23.053042 18.443048-46.060035 46.060035-46.060035 23.053042 0 46.059012 18.395976 46.059012 46.060035l0 552.71326C558.827515 786.098705 540.432563 804.494681 512.768503 804.494681L512.768503 804.494681zM325.642638 712.375633c-27.663036 0-46.059012-18.442024-46.059012-46.060035L279.583626 297.839409c0-23.053042 18.395976-46.059012 46.059012-46.059012 23.006993 0 48.946782 18.395976 48.946782 46.059012l0 368.476189C374.58942 693.933609 353.259626 712.375633 325.642638 712.375633L325.642638 712.375633zM139.821489 597.249593c-27.616988 0-46.059012-18.442024-46.059012-46.059012L93.762477 412.965449c0-23.006993 18.442024-46.060035 46.059012-46.060035 23.053042 0 48.993854 18.443048 48.993854 46.060035l0 142.789077C188.815343 578.807568 167.485549 597.249593 139.821489 597.249593L139.821489 597.249593z" p-id="20553"></path></svg>