<?xml version="1.0" standalone="no"?><!DOCTYPE svg PUBLIC "-//W3C//DTD SVG 1.1//EN" "http://www.w3.org/Graphics/SVG/1.1/DTD/svg11.dtd"><svg t="1550043360561" class="icon" style="" viewBox="0 0 1024 1024" version="1.1" xmlns="http://www.w3.org/2000/svg" p-id="3563" xmlns:xlink="http://www.w3.org/1999/xlink" width="48" height="48"><defs><style type="text/css"></style></defs><path d="M824.3 291.4c-51.5-22.2-133.1-17-206.9-17H231.1V173.6h-1.3c-8.7 9.2-17.5 18.3-26.2 27.5L97.5 307.2c44.5 47.1 89 94.3 133.6 141.4 0.4-35.8 0.9-71.6 1.3-107.4h403.3c70.6 0 145.1-5.7 184.6 24.9 41.4 32.1 40 100.7 39.3 175.5 20.1 21.8 40.2 43.6 60.2 65.5 1.7 1.3 3.5 2.6 5.2 3.9 0.4-38.8 0.9-77.7 1.3-116.5 0.1-102.5-31.2-172.6-102-203.1z m-32.7 390.2H388.3c-67.3 0-142.1 6.3-180.7-22.3-43.8-32.4-42.7-100.4-41.9-178.1-22.3-24-44.5-48-66.8-72-0.5 120.1-8.2 240.1 57.6 293.3 62.5 50.5 135.8 45.8 248.8 45.8h386.3c0.4 34 0.9 68.1 1.3 102.1l132.2-132.2C881 670.6 836.9 623 792.9 575.5c-0.5 35.4-0.9 70.7-1.3 106.1z" p-id="3564"></path></svg>