<?xml version="1.0" standalone="no"?><!DOCTYPE svg PUBLIC "-//W3C//DTD SVG 1.1//EN" "http://www.w3.org/Graphics/SVG/1.1/DTD/svg11.dtd"><svg t="1550043373900" class="icon" style="" viewBox="0 0 1024 1024" version="1.1" xmlns="http://www.w3.org/2000/svg" p-id="3812" xmlns:xlink="http://www.w3.org/1999/xlink" width="48" height="48"><defs><style type="text/css"></style></defs><path d="M920.065 817.992L683.7 680.272c-7.254-4.226-16.529-1.718-20.713 5.6l-15.165 26.504c-4.187 7.32-1.702 16.677 5.55 20.904l145.413 84.725H109.993c-7.548 0-13.667 6.12-13.667 13.668v28.889c0 7.548 6.12 13.667 13.667 13.667h803.738c7.7 0 13.942-6.293 13.942-14.056V832.06c0-0.236-0.024-0.466-0.035-0.7 0.036-5.324-2.676-10.515-7.573-13.369zM920.065 553.575L683.7 415.855c-7.254-4.226-16.529-1.717-20.713 5.6l-15.165 26.504c-4.187 7.32-1.702 16.678 5.55 20.905l145.415 84.725H118.549c-7.548 0-13.667 6.12-13.667 13.667v28.89c0 7.547 6.12 13.667 13.667 13.667h795.183c7.699 0 13.941-6.294 13.941-14.056v-28.113c0-0.235-0.024-0.465-0.035-0.699 0.036-5.324-2.676-10.516-7.573-13.37zM927.638 302.528c0.035-5.324-2.676-10.515-7.572-13.37L683.7 151.439c-7.254-4.226-16.529-1.72-20.713 5.6l-15.165 26.504c-4.187 7.319-1.702 16.678 5.55 20.903l145.412 84.724H109.993c-7.548 0-13.667 6.12-13.667 13.667v28.89c0 7.547 6.12 13.666 13.667 13.666h803.738c7.7 0 13.942-6.292 13.942-14.056v-28.112c0.001-0.232-0.023-0.462-0.035-0.696z" p-id="3813"></path></svg>