<?xml version="1.0" standalone="no"?><!DOCTYPE svg PUBLIC "-//W3C//DTD SVG 1.1//EN" "http://www.w3.org/Graphics/SVG/1.1/DTD/svg11.dtd"><svg t="1549786841555" class="icon" style="" viewBox="0 0 1024 1024" version="1.1" xmlns="http://www.w3.org/2000/svg" p-id="5393" xmlns:xlink="http://www.w3.org/1999/xlink" width="72" height="72"><defs><style type="text/css"></style></defs><path d="M432.986328125 527.556640625l182.4609375 124.716796875c9.140625 6.240234375 21.533203125 3.8671875 27.7734375-5.185546875 2.28515625-3.33984375 3.515625-7.294921875000001 3.515625-11.25V386.31640625c0-11.07421875-8.96484375-20.0390625-20.0390625-20.0390625-4.04296875 0-7.998046875 1.23046875-11.25 3.515625L432.986328125 494.509765625c-9.140625 6.240234375-11.42578125 18.720703125-5.185546875 27.7734375 1.40625 2.109375 3.1640625 3.8671875 5.185546875 5.2734375z m-71.015625-125.595703125v220.078125c0 10.986328125 8.96484375 19.951171875 20.0390625 19.951171875 11.162109375 0 20.0390625-8.96484375 20.0390625-19.951171875V401.9609375c0-10.986328125-8.96484375-19.951171875-20.0390625-19.951171875-11.162109375 0-20.0390625 8.96484375-20.0390625 19.951171875zM512 962C263.4453125 962 62 760.5546875 62 512S263.4453125 62 512 62s450 201.4453125 450 450-201.4453125 450-450 450z" p-id="5394"></path></svg>