<?xml version="1.0" standalone="no"?><!DOCTYPE svg PUBLIC "-//W3C//DTD SVG 1.1//EN" "http://www.w3.org/Graphics/SVG/1.1/DTD/svg11.dtd"><svg t="1549545780539" class="icon" style="" viewBox="0 0 1024 1024" version="1.1" xmlns="http://www.w3.org/2000/svg" p-id="20668" xmlns:xlink="http://www.w3.org/1999/xlink" width="72" height="72"><defs><style type="text/css"></style></defs><path d="M513.408 13.312c-275.584 0-498.944 223.36-498.944 498.944 0 77.312 17.536 150.272 48.96 215.616 0 0.192 0 0.192 0 0.192 0 0.128 0 0.128 0 0.128 0.128 0.192 0.256 0.448 0.32 0.768C63.936 728.832 63.936 728.832 64 728.832c3.392 4.864 13.248 3.968 22.336-0.64 9.408-4.864 13.76-13.696 11.008-19.456-28.16-59.648-43.968-126.144-43.968-196.48 0-254.08 205.952-460.032 460.032-460.032 254.08 0 460.032 206.016 460.032 460.032 0 254.016-205.952 460.096-460.032 460.096-81.152 0-157.248-21.12-223.424-57.984-0.128-0.128-0.192-0.32-0.384-0.32-5.184-4.032-14.592-0.32-21.12 8.192-6.4 8.256-6.144 19.328-1.344 23.552 0 0.128-0.128 0.128-0.128 0.32 72.704 41.344 156.8 65.152 246.464 65.152 275.52 0 498.88-223.36 498.88-498.944C1012.288 236.736 788.928 13.312 513.408 13.312z" p-id="20669"></path><path d="M156.544 833.472m-26.496 0a0.414 0.414 0 1 0 52.992 0 0.414 0.414 0 1 0-52.992 0Z" p-id="20670"></path><path d="M730.24 283.456 581.056 192.896C576.832 190.272 572.032 189.44 567.36 189.44 566.592 189.312 565.952 188.992 565.12 188.992c-1.344 0-2.56 0.512-3.84 0.704C561.024 189.76 560.832 189.824 560.512 189.888 549.12 192 540.352 201.024 540.352 212.416l0 345.088C506.688 540.16 459.136 535.104 409.6 547.456 325.824 568.384 269.12 630.208 282.88 685.632c13.824 55.424 92.992 83.392 176.768 62.528 80.832-20.096 137.472-81.536 129.024-135.36 1.728-3.2 1.216-3.52 1.216-7.36L589.888 260.928l112.576 68.288c12.672 7.744 29.12 3.648 36.8-8.96C746.944 307.584 742.784 291.136 730.24 283.456zM450.112 709.76c-55.04 13.76-106.624-2.88-115.136-37.12C326.4 638.464 364.096 599.552 419.2 585.728c55.04-13.76 106.624 2.88 115.136 37.184C542.848 657.216 505.152 696.064 450.112 709.76z" p-id="20671"></path></svg>