<?xml version="1.0" standalone="no"?><!DOCTYPE svg PUBLIC "-//W3C//DTD SVG 1.1//EN" "http://www.w3.org/Graphics/SVG/1.1/DTD/svg11.dtd"><svg t="1549617297391" class="icon" style="" viewBox="0 0 1024 1024" version="1.1" xmlns="http://www.w3.org/2000/svg" p-id="3986" xmlns:xlink="http://www.w3.org/1999/xlink" width="72" height="72"><defs><style type="text/css"></style></defs><path d="M1011.638857 210.651429l-177.590857 213.284571-72.704-60.708571 86.528-104.009143c-165.010286 4.388571-287.451429 47.177143-364.470857 127.341714-79.872 83.090286-88.795429 186.514286-89.088 225.865143H299.446857c0.292571-54.272 12.434286-183.296 114.395429-290.523429 92.891429-97.133714 233.106286-149.723429 418.157714-156.964571l-98.011429-98.011429 66.998858-66.925714 210.651428 210.651429z m-214.089143 740.644571H137.362286A137.654857 137.654857 0 0 1 0 813.641143V153.746286C0 77.897143 61.44 16.384 137.362286 16.384H467.382857v94.866286h-329.874286a42.276571 42.276571 0 0 0-42.569142 42.496v660.187428c0 23.552 19.236571 42.496 42.496 42.496h660.187428a42.642286 42.642286 0 0 0 42.496-42.496V588.8h94.866286v225.060571a137.508571 137.508571 0 0 1-137.362286 137.362286z" fill="#000000" p-id="3987"></path></svg>