<?xml version="1.0" standalone="no"?><!DOCTYPE svg PUBLIC "-//W3C//DTD SVG 1.1//EN" "http://www.w3.org/Graphics/SVG/1.1/DTD/svg11.dtd"><svg t="1550047500429" class="icon" style="" viewBox="0 0 1024 1024" version="1.1" xmlns="http://www.w3.org/2000/svg" p-id="10261" xmlns:xlink="http://www.w3.org/1999/xlink" width="48" height="48"><defs><style type="text/css"></style></defs><path d="M887.466667 187.733333c-22.755556-22.755556-56.888889-22.755556-79.644445 0-22.755556 22.755556-22.755556 56.888889 0 79.644445C876.088889 335.644444 910.222222 420.977778 910.222222 512c0 91.022222-34.133333 176.355556-102.4 244.622222-22.755556 22.755556-22.755556 56.888889 0 79.644445 11.377778 11.377778 28.444444 17.066667 39.822222 17.066666 17.066667 0 28.444444-5.688889 39.822223-17.066666C972.8 750.933333 1024 637.155556 1024 512s-51.2-238.933333-136.533333-324.266667z" p-id="10262"></path><path d="M641.820444 300.487111a51.712 51.712 0 0 0 0 74.865778c41.813333 41.813333 56.604444 82.944 56.604445 136.647111 0 53.248-24.177778 109.056-56.604445 141.482667a51.712 51.712 0 0 0 0 74.865777c8.248889 8.248889 36.181333 14.904889 57.912889 8.874667a41.244444 41.244444 0 0 0 16.952889-8.874667C783.530667 667.477333 803.84 577.991111 803.84 512c0-9.671111-0.113778-19.342222-0.625778-29.013333-3.015111-56.433778-18.147556-114.062222-86.584889-182.499556a51.712 51.712 0 0 0-74.865777 0z m-426.439111 41.301333H40.618667C16.270222 341.788444 0 358.968889 0 384.568889v256.682667c0 25.713778 16.270222 42.780444 40.618667 42.780444h174.762666l231.594667 219.477333c28.444444 17.066667 65.024 0 65.024-34.247111V156.558222c0-34.190222-36.579556-55.580444-65.024-34.190222L215.381333 341.788444z" p-id="10263"></path></svg>